# xmcd
# 
# Track frame offsets:
#     150
#     17363
#     36143
#     50770
#     72039
# 
# Disc length: 1127
# 
# Revision: 0
# Processed by: cddbd v1.5.2PL0 Copyright (c) Steve Scherf et al.
# Submitted via: fre:ac v1.1beta1pre3
# 
DISCID=37046505
DTITLE=Alpha Academy - The City is Burning
DYEAR=2008
DGENRE=Rock
TTITLE0=Wake Up
TTITLE1=The City Is Burning
TTITLE2=Over Now
TTITLE3=Confession
TTITLE4=Prototype
EXTD=
EXTT0=
EXTT1=
EXTT2=
EXTT3=
EXTT4=
PLAYORDER=
